<?xml version="1.0" standalone="no"?>
<!DOCTYPE svg PUBLIC "-//W3C//DTD SVG 20010904//EN"
 "http://www.w3.org/TR/2001/REC-SVG-20010904/DTD/svg10.dtd">
<svg version="1.0" xmlns="http://www.w3.org/2000/svg"
 width="300.000000pt" height="300.000000pt" viewBox="0 0 300.000000 300.000000"
 preserveAspectRatio="xMidYMid meet">
<metadata>
Created by potrace 1.11, written by Peter Selinger 2001-2013
</metadata>
<g transform="translate(0.000000,300.000000) scale(0.100000,-0.100000)"
fill="#000000" stroke="none">
<path d="M2205 2223 c-88 -9 -185 -27 -234 -43 -288 -92 -485 -291 -573 -576
-16 -53 -22 -101 -24 -209 -3 -144 9 -224 50 -333 103 -280 360 -488 666 -539
96 -16 280 -8 370 16 152 40 328 135 437 235 l48 45 -56 58 c-31 32 -87 91
-125 131 -68 71 -70 72 -89 55 -126 -115 -274 -177 -417 -175 -43 1 -83 4 -88
7 -6 3 -19 8 -31 10 -48 9 -135 62 -188 115 -85 84 -138 204 -144 327 -8 148
42 283 140 382 191 192 476 180 698 -30 l52 -49 19 23 c10 12 66 78 123 146
l104 123 -39 35 c-141 127 -357 223 -537 238 -39 4 -85 7 -102 9 -16 1 -43 1
-60 -1z"/>
<path d="M218 2212 l-28 -3 0 -170 c0 -128 3 -169 13 -170 6 0 137 -1 289 -1
l276 -1 -1 -431 -2 -431 -24 -42 c-63 -110 -219 -109 -384 0 -29 20 -68 50
-86 69 l-32 33 -24 -31 c-13 -16 -58 -81 -101 -144 l-78 -114 67 -61 c157
-144 330 -208 542 -200 111 4 134 7 212 35 158 55 256 160 315 334 21 59 21
82 23 694 l2 632 -61 0 c-497 4 -897 4 -918 2z"/>
</g>
</svg>
